<?xml version="1.0" encoding="utf-8"?>
<!-- Generator: Adobe Illustrator 24.0.0, SVG Export Plug-In . SVG Version: 6.00 Build 0)  -->
<svg version="1.1" id="Layer_1" xmlns="http://www.w3.org/2000/svg" xmlns:xlink="http://www.w3.org/1999/xlink" x="0px" y="0px"
	 viewBox="0 0 2400 1680" style="enable-background:new 0 0 2400 1680;" xml:space="preserve">
<style type="text/css">
	.st0{fill:#FFFFFF;}
	.st1{font-family:'Pacifico-Regular';}
	.st2{font-size:190.497px;}
</style>
<g>
	<path d="M588.24,95.02c45.18-8.96,93.8-18.59,148.69-29.48c6.85,98.29,13.39,192.06,19.93,285.83c3.33,1.54,6.65,3.07,9.98,4.61
		c51.65-66.25,119.1-96.04,200.44-90.87c58.71,3.73,113.19,21.28,156.34,63.11c85.63,83.01,97.52,225.85,28.65,327.88
		c-77.62,115-181.09,134.09-342.73,63.24c-16.69,56.39-38.28,67.55-111.68,62.21C661.35,552.92,625.12,326.01,588.24,95.02z
		 M1141.77,510.36c-0.69-87.07-76.53-163.39-161.93-162.96c-90.42,0.46-166.47,75.34-165.79,163.22
		c0.73,94.33,77.54,173.83,166.95,172.81C1069.85,682.43,1142.51,604.21,1141.77,510.36z"/>
	<path d="M1747.56,790.31c-35.63-5.49-67.38-10.38-101.16-15.59c0-20.57,0-39.09,0-67.58c-77.76,64.75-159.68,77.16-247.61,46.82
		c-52.61-18.15-90.82-54.74-117.97-101.82c-62.15-107.76-44.83-247.7,37.79-319.65c101.93-88.76,218.21-80.43,366.33,30.19
		c10.55-92.58,20.69-181.64,31.47-276.22c48.55,4.1,96.48,8.14,150.97,12.74c-24.69,119.33-50.92,231.78-70.61,345.36
		C1777.15,557.78,1764.1,672.14,1747.56,790.31z M1466.34,355.04c-94.31-0.01-164.66,70.48-165.21,165.54
		c-0.52,89.94,76.72,170.65,164.37,171.77c87.29,1.12,166.28-81,165.46-175.2C1630.2,429.36,1553.04,345.5,1466.34,355.04z"/>
	<path d="M417.8,417.47c16.44-76.34,20.96-78.77,106.12-66.46c24.41,148.61,48.45,294.93,73.31,446.26
		c-20.14,5.81-45.42,15.29-71.55,20.16c-42.82,7.98-25.01-42.79-55.52-55.34c-51.84,63.93-112.94,120.95-207.2,114.13
		c-66.62-4.82-122.83-31.69-169.67-79.95C16.38,717.01-4.37,580.5,49.59,495.75c40.17-63.09,98.94-101.11,170.6-117.32
		C290.23,362.58,357.65,371.92,417.8,417.47z M295.66,464.1c-82.77,0.51-154.85,68.83-155.94,147.8
		c-1.08,78.73,75.43,156.57,153.98,156.66c82.05,0.09,149.07-67.85,149.43-151.51C443.51,531.41,378.12,463.59,295.66,464.1z"/>
	<path d="M2376.35,620.26c0.39,137.19-119.64,253.06-263.19,252.01c-138.44-1.02-260.65-108.74-260.65-263.59
		c-0.01-135.19,95.21-238.44,250.68-239.14C2267.61,368.79,2384.38,500.37,2376.35,620.26z M2106.12,471.37
		c-78.98,0.09-144.34,65.95-145.75,146.85c-1.41,81.36,71.99,153.08,155.73,152.18c80.12-0.87,147.54-72.27,146.94-155.63
		C2262.45,533.14,2194.76,471.27,2106.12,471.37z"/>
	<path d="M1146.08,200.21c-68.29-3.14-133.74-3.38-198.54-9.99c-51.6-5.26-95.91,5.22-138.74,36.62
		c12.37-23.22,22.09-48.52,38.09-68.9c9.86-12.56,28.96-24.14,44.45-24.89c58.59-2.83,117.4-1.29,176.13-0.95
		C1128.52,132.46,1128.52,132.68,1146.08,200.21z"/>
	<path d="M1625.87,228.55c-73.83-65.96-159.7-31.9-240.17-32.96c-31.11-0.41-62.27,3.22-93.87,5.03
		c6.09-62.96,12.01-68.76,66.95-68.71c53.33,0.05,106.8,2.51,159.94-0.58c37.26-2.17,62.21,7,76.18,43.74
		C1602.13,194.08,1615.35,210.8,1625.87,228.55z"/>
	<path d="M1349.27,948.92c-87.43,29.53-170.75,34.05-258.14-1.35c24.08-79.66,48.28-159.75,72.49-239.85
		c2.17,0.51,4.34,1.02,6.51,1.52c-16.75,71.95-33.5,143.9-50.75,218.01c66.62,24.09,131.15,20.84,199.95,0.87
		c-17.35-70.62-34.44-140.15-51.52-209.69c2.29-0.64,4.58-1.28,6.87-1.92C1299.26,793.08,1323.83,869.64,1349.27,948.92z"/>
	<path d="M1828.26,952.32c-8.14,49.61-15.02,91.55-21.9,133.49c-3.11-0.31-6.21-0.61-9.32-0.92c3.93-64.8,7.87-129.6,11.8-194.4
		c3.25-1.23,6.49-2.46,9.74-3.69c35.04,62.89,70.09,125.78,105.13,188.68c-2.3,1.59-4.6,3.18-6.9,4.77
		C1888.7,1039.64,1860.59,999.03,1828.26,952.32z"/>
	<path d="M600.43,951.57c-31.68,47.6-58.3,87.59-84.91,127.58c-2.6-1.5-5.2-3-7.8-4.5c33.75-62.39,67.49-124.78,101.24-187.17
		c3.45,0.59,6.91,1.19,10.36,1.78c4.2,64.78,8.39,129.55,12.59,194.33c-3.13,0.38-6.25,0.76-9.38,1.15
		C615.72,1043.74,608.92,1002.74,600.43,951.57z"/>
	<path d="M915.54,546.03c-0.77-41.41,28.67-73.49,68.96-75.14c39.93-1.63,78.14,34.07,77.9,72.8c-0.21,34.85-37.77,72.5-73.68,73.86
		C950.33,619,916.28,585.73,915.54,546.03z M1049.74,521.41c-19.42-12.45-30.49-24.74-41.84-25.01
		c-7.57-0.18-15.55,16.76-23.34,26.04c9.14,7.65,17.79,20.53,27.54,21.42C1021.29,544.7,1031.63,532.9,1049.74,521.41z"/>
	<path d="M1463.34,470.98c39.75,0.98,73.41,35.08,72.81,73.78c-0.56,36.41-38.81,75.01-74.87,72.16
		c-44.43-3.51-75.05-36.91-70.33-78.22C1395.38,500,1424.26,470.02,1463.34,470.98z M1491.68,554.93
		c11.38-15.43,26.21-28.35,23.83-33.82c-4.75-10.95-18.02-22.2-29.55-24.54c-5.75-1.17-21.25,16.82-21.6,26.53
		C1464.06,531.64,1478.72,540.71,1491.68,554.93z"/>
</g>
<path d="M1742.47,932.88c-74.91,46.08-145.11,89.27-217.23,133.64c-7.05-12.64-13.98-20.28-15.69-28.95
	c-8.72-44.31-37.14-50.59-77.57-49.81c-128.4,2.48-257,4.21-385.28-0.54c-60.9-2.25-106.54,4.85-120.83,72.8
	c-0.73,3.48-4.56,6.32-8.69,11.73c-75.24-46.36-150.2-92.54-230-141.71c2.23,30.4,4.96,54.42,5.61,78.5
	c3.29,122.82,5.44,245.67,9.86,368.45c0.49,13.51,9.62,30.95,20.39,39.2c91.91,70.43,184.51,140.02,278.51,207.62
	c17.06,12.27,41.33,19.83,62.46,20.24c106.62,2.08,213.34,2.48,319.94,0.08c23.71-0.53,50.95-9.55,70.01-23.58
	c88.87-65.43,175.88-133.44,262.28-202.13c10.71-8.51,19.15-26.45,19.57-40.3c4.09-133.9,6.32-267.85,8.82-401.79
	C1744.86,963.48,1743.4,950.63,1742.47,932.88z M1356.17,1121.45c-36.09,38.2-266.58,33.01-290.27,0
	C1159.77,1121.45,1256.88,1121.45,1356.17,1121.45z"/>
<text transform="matrix(1 0 0 1 1050.8906 1609.4736)" class="st0 st1 st2">arts</text>
</svg>
